<svg width="20" height="21" viewBox="0 0 20 21" fill="none" xmlns="http://www.w3.org/2000/svg">
<path d="M10.0001 2.16663C5.40008 2.16663 1.66675 5.89996 1.66675 10.5C1.66675 15.1 5.40008 18.8333 10.0001 18.8333C14.6001 18.8333 18.3334 15.1 18.3334 10.5C18.3334 5.89996 14.6084 2.16663 10.0001 2.16663Z" fill="black"/>
<rect x="3.33325" y="3.83337" width="13.3333" height="13.3333" rx="6.66667" fill="white"/>
<path d="M10 5.5C7.24 5.5 5 7.74 5 10.5C5 13.26 7.24 15.5 10 15.5C12.76 15.5 15 13.26 15 10.5C15 7.74 12.765 5.5 10 5.5Z" fill="black"/>
<rect x="6.66675" y="7.16663" width="6.66667" height="6.66667" rx="3.33333" fill="white"/>
<rect x="9.16675" y="14.6666" width="1.66667" height="3.33333" fill="black"/>
<rect x="14.1667" y="9.66663" width="3.33333" height="1.66667" fill="black"/>
<rect x="2.5" y="9.66663" width="3.33333" height="1.66667" fill="black"/>
</svg>
