<svg width="20" height="21" viewBox="0 0 20 21" fill="none" xmlns="http://www.w3.org/2000/svg">
<path d="M9.99996 2.16663C5.39996 2.16663 1.66663 5.89996 1.66663 10.5C1.66663 15.1 5.39996 18.8333 9.99996 18.8333C14.6 18.8333 18.3333 15.1 18.3333 10.5C18.3333 5.89996 14.6083 2.16663 9.99996 2.16663Z" fill="black"/>
<rect x="3.33337" y="3.83337" width="13.3333" height="13.3333" rx="6.66667" fill="white"/>
<path d="M10 5.5C7.24 5.5 5 7.74 5 10.5C5 13.26 7.24 15.5 10 15.5C12.76 15.5 15 13.26 15 10.5C15 7.74 12.765 5.5 10 5.5Z" fill="black"/>
<rect x="6.66663" y="7.16663" width="6.66667" height="6.66667" rx="3.33333" fill="white"/>
<rect x="9.16663" y="14.6666" width="1.66667" height="3.33333" fill="black"/>
<rect x="14.1666" y="9.66663" width="3.33333" height="1.66667" fill="black"/>
<rect x="2.5" y="9.66663" width="3.33333" height="1.66667" fill="black"/>
</svg>
