<svg width="24" height="25" viewBox="0 0 24 25" fill="none" xmlns="http://www.w3.org/2000/svg">
<path d="M21.8104 10.5415H21.0049V10.5H12.0049V14.5H17.6564C16.8319 16.8285 14.6164 18.5 12.0049 18.5C8.69138 18.5 6.00488 15.8135 6.00488 12.5C6.00488 9.1865 8.69138 6.5 12.0049 6.5C13.5344 6.5 14.9259 7.077 15.9854 8.0195L18.8139 5.191C17.0279 3.5265 14.6389 2.5 12.0049 2.5C6.48238 2.5 2.00488 6.9775 2.00488 12.5C2.00488 18.0225 6.48238 22.5 12.0049 22.5C17.5274 22.5 22.0049 18.0225 22.0049 12.5C22.0049 11.8295 21.9359 11.175 21.8104 10.5415Z" fill="#FFC107"/>
<path d="M3.15771 7.8455L6.44321 10.255C7.33221 8.054 9.48522 6.5 12.0047 6.5C13.5342 6.5 14.9257 7.077 15.9852 8.0195L18.8137 5.191C17.0277 3.5265 14.6387 2.5 12.0047 2.5C8.16371 2.5 4.83271 4.6685 3.15771 7.8455Z" fill="#FF3D00"/>
<path d="M12.005 22.5C14.588 22.5 16.935 21.5115 18.7095 19.904L15.6145 17.285C14.577 18.0745 13.3088 18.5014 12.005 18.5C9.40404 18.5 7.19554 16.8415 6.36354 14.527L3.10254 17.0395C4.75754 20.278 8.11854 22.5 12.005 22.5Z" fill="#4CAF50"/>
<path d="M21.8104 10.5415H21.0049V10.5H12.0049V14.5H17.6564C17.262 15.6082 16.5516 16.5766 15.6129 17.2855L15.6144 17.2845L18.7094 19.9035C18.4904 20.1025 22.0049 17.5 22.0049 12.5C22.0049 11.8295 21.9359 11.175 21.8104 10.5415Z" fill="#1976D2"/>
</svg>
