<svg width="45" height="45" viewBox="0 0 45 45" fill="none" xmlns="http://www.w3.org/2000/svg">
<path fill-rule="evenodd" clip-rule="evenodd" d="M18.7838 20.625H26.2162C27.27 20.625 28.125 21.4556 28.125 22.4813V28.1456C28.125 29.1713 27.27 30.0019 26.2162 30.0019H18.7838C17.73 30 16.875 29.1694 16.875 28.1438V22.4813C16.875 21.4556 17.73 20.625 18.7838 20.625V20.625Z" stroke="black" stroke-width="2" stroke-linecap="round" stroke-linejoin="round"/>
<path d="M19.3428 20.625V18.1575C19.3428 16.4138 20.7565 15 22.5003 15C24.244 15 25.6578 16.4138 25.6578 18.1575V20.625" stroke="black" stroke-width="2" stroke-linecap="round" stroke-linejoin="round"/>
<path d="M11.8721 35.9906C14.7971 38.2987 18.4833 39.6862 22.4996 39.6862C31.9927 39.6862 39.6877 31.9912 39.6877 22.4981C39.6877 19.9781 39.1327 17.5912 38.1577 15.435L34.5314 19.0612" stroke="black" stroke-width="2" stroke-linecap="round" stroke-linejoin="round"/>
<path d="M33.1272 9.00937C30.2003 6.70125 26.5159 5.31187 22.4996 5.31187C13.0065 5.31187 5.31152 13.0069 5.31152 22.5C5.31152 25.02 5.86652 27.4069 6.84152 29.5631L10.4678 25.9369" stroke="black" stroke-width="2" stroke-linecap="round" stroke-linejoin="round"/>
</svg>
