<svg width="165" height="19" viewBox="0 0 165 19" fill="none" xmlns="http://www.w3.org/2000/svg">
<g clip-path="url(#clip0_327_970)">
<path d="M79.806 18.3789C78.7337 18.3789 77.7272 18.3 76.7798 18.1421C75.8522 18.0039 75.1154 17.8197 74.5694 17.5894V14.0368C75.1812 14.3197 75.9114 14.5368 76.7535 14.6947C77.6153 14.8526 78.339 14.9315 78.9376 14.9315C79.5692 14.9315 80.0429 14.9118 80.3586 14.8789C80.6941 14.846 80.8586 14.6947 80.8586 14.4315C80.8586 14.1355 80.5691 13.9052 79.9902 13.7473C79.4113 13.5894 78.6811 13.3592 77.8061 13.0631C76.668 12.6618 75.8128 12.1881 75.2536 11.6421C74.6944 11.096 74.4115 10.3065 74.4115 9.27364C74.4115 8.03022 74.9049 7.0697 75.8851 6.40522C76.8653 5.72101 78.4113 5.37891 80.5165 5.37891C81.3257 5.37891 82.1546 5.43812 83.0164 5.56312C83.8782 5.68812 84.5493 5.82628 85.0427 5.98417V9.45785C84.5164 9.22759 83.9374 9.06312 83.3059 8.95785C82.6941 8.85259 82.1283 8.79996 81.6217 8.79996C81.0625 8.79996 80.5626 8.82627 80.1218 8.87891C79.681 8.93154 79.4639 9.08285 79.4639 9.32627C79.4639 9.60917 79.7073 9.80654 80.2007 9.93154C80.7073 10.0565 81.3849 10.2473 82.227 10.5105C83.1743 10.7934 83.9111 11.096 84.4374 11.4315C84.9835 11.7671 85.3584 12.1684 85.569 12.6421C85.7992 13.1157 85.911 13.7013 85.911 14.4052C85.911 15.6684 85.3913 16.6486 84.3585 17.3526C83.3388 18.0368 81.8257 18.3789 79.806 18.3789ZM64.4251 18.1157V5.64206H69.188L69.3196 6.64206C69.8262 6.34601 70.4774 6.0697 71.2669 5.82627C72.0563 5.58285 72.8524 5.43154 73.6615 5.37891V9.06312C73.2076 9.09601 72.7076 9.1618 72.1616 9.24733C71.6353 9.33285 71.1156 9.45127 70.609 9.58943C70.1156 9.71443 69.7077 9.85259 69.3722 10.0105V18.1157H64.4251ZM55.2281 14.7736C56.0372 14.7736 56.6162 14.5434 56.9648 14.0894C57.3332 13.6355 57.5174 12.8986 57.5174 11.8789C57.5174 10.8592 57.3332 10.1486 56.9648 9.6947C56.6162 9.22101 56.0372 8.98417 55.2281 8.98417C54.4189 8.98417 53.8663 9.22101 53.5176 9.6947C53.1689 10.1486 52.9913 10.8789 52.9913 11.8789C52.9913 12.8789 53.1689 13.6355 53.5176 14.0894C53.8663 14.5434 54.4386 14.7736 55.2281 14.7736ZM55.2281 18.3789C52.7347 18.3789 50.8927 17.8263 49.702 16.721C48.5244 15.6157 47.9389 14.0039 47.9389 11.8789C47.9389 9.75391 48.5375 8.16838 49.7283 7.06312C50.919 5.93812 52.7545 5.37891 55.2281 5.37891C57.7016 5.37891 59.5634 5.93812 60.7542 7.06312C61.9646 8.16838 62.5699 9.77364 62.5699 11.8789C62.5699 13.9842 61.9712 15.6157 60.7805 16.721C59.5897 17.8263 57.7345 18.3789 55.2281 18.3789ZM43.814 18.3789C42.1496 18.3789 40.9392 17.9579 40.1826 17.1157C39.4261 16.2736 39.0511 15.1355 39.0511 13.6947V9.29996H37.4196V5.64206H39.0511V3.08943L43.9982 1.90522V5.64206H46.8665L46.6823 9.29996H43.9982V13.3263C43.9982 13.8526 44.1298 14.2276 44.393 14.4579C44.6561 14.6684 45.0574 14.7736 45.6034 14.7736C46.11 14.7736 46.6297 14.6881 47.156 14.5105V17.8C46.2284 18.1881 45.11 18.3789 43.814 18.3789ZM29.2751 14.7736C30.0843 14.7736 30.6632 14.5434 31.0119 14.0894C31.3803 13.6355 31.5645 12.8986 31.5645 11.8789C31.5645 10.8592 31.3803 10.1486 31.0119 9.6947C30.6632 9.22101 30.0843 8.98417 29.2751 8.98417C28.466 8.98417 27.9134 9.22101 27.5647 9.6947C27.216 10.1486 27.0384 10.8789 27.0384 11.8789C27.0384 12.8789 27.216 13.6355 27.5647 14.0894C27.9134 14.5434 28.4857 14.7736 29.2751 14.7736ZM29.2751 18.3789C26.7818 18.3789 24.9398 17.8263 23.7491 16.721C22.5715 15.6157 21.986 14.0039 21.986 11.8789C21.986 9.75391 22.5846 8.16838 23.7754 7.06312C24.9661 5.93812 26.8016 5.37891 29.2751 5.37891C31.7487 5.37891 33.6105 5.93812 34.8012 7.06312C36.0117 8.16838 36.617 9.77364 36.617 11.8789C36.617 13.9842 36.0183 15.6157 34.8276 16.721C33.6368 17.8263 31.7816 18.3789 29.2751 18.3789ZM0 18.1157V5.64206H4.57876L4.71034 6.64206C5.25637 6.27364 5.86161 5.97759 6.52605 5.74733C7.21024 5.50391 7.95363 5.37891 8.76281 5.37891C9.57199 5.37891 10.2035 5.49075 10.6575 5.72101C11.1114 5.95127 11.4798 6.28022 11.7627 6.72101C12.3219 6.3197 12.9534 5.99075 13.6573 5.74733C14.3744 5.50391 15.2165 5.37891 16.1836 5.37891C17.6375 5.37891 18.7098 5.76706 19.394 6.5368C20.0781 7.29338 20.4202 8.45127 20.4202 10.0105V18.1157H15.552V10.5894C15.552 10.0302 15.4402 9.63549 15.2099 9.40522C14.9797 9.1618 14.6047 9.0368 14.0784 9.0368C13.3942 9.0368 12.835 9.28022 12.3942 9.77364C12.4271 10.0039 12.4469 10.221 12.4469 10.4315V18.1157H7.86811V10.5105C7.86811 10.0039 7.78258 9.63549 7.60496 9.40522C7.42733 9.1618 7.0984 9.0368 6.605 9.0368C6.26949 9.0368 5.94713 9.12233 5.63135 9.29996C5.31558 9.47759 5.03269 9.68812 4.78928 9.93154V18.1157H0Z" fill="#06D6A0"/>
<path d="M156.343 10.6684H160.737V10.221C160.737 9.72759 160.579 9.32627 160.264 9.01048C159.967 8.6947 159.428 8.5368 158.658 8.5368C157.797 8.5368 157.191 8.72101 156.843 9.08943C156.507 9.43812 156.343 9.96443 156.343 10.6684ZM159.185 18.3789C157.731 18.3789 156.441 18.1421 155.316 17.6684C154.211 17.175 153.343 16.4513 152.711 15.4842C152.099 14.5171 151.79 13.3263 151.79 11.9052C151.79 9.92496 152.349 8.34601 153.474 7.16838C154.599 5.97759 156.27 5.37891 158.5 5.37891C160.533 5.37891 162.125 5.89864 163.263 6.93154C164.421 7.96443 165 9.37891 165 11.1684V13.3526H156.343C156.573 14.0171 157.02 14.4907 157.685 14.7736C158.349 15.0565 159.257 15.1947 160.395 15.1947C161.112 15.1947 161.836 15.1355 162.553 15.0105C163.29 14.8723 163.875 14.7144 164.316 14.5368V17.5105C163.086 18.0894 161.375 18.3789 159.185 18.3789ZM136.587 18.1157V5.64206H141.218L141.35 6.58943C141.823 6.27364 142.448 5.99075 143.218 5.74733C144.008 5.50391 144.85 5.37891 145.744 5.37891C147.304 5.37891 148.448 5.76706 149.165 6.5368C149.882 7.30654 150.244 8.50391 150.244 10.1157V18.1157H145.297V10.6157C145.297 10.0565 145.172 9.64864 144.929 9.40522C144.685 9.1618 144.251 9.0368 143.639 9.0368C143.271 9.0368 142.883 9.12233 142.481 9.29996C142.093 9.47759 141.777 9.68812 141.534 9.93154V18.1157H136.587ZM129.271 18.1157V9.24733H127.456L127.877 5.64206H134.219V18.1157H129.271ZM128.877 3.98417V0.405222H134.219V3.98417H128.877ZM124.765 18.3789C123.239 18.3789 122.153 18.0565 121.502 17.4052C120.851 16.7539 120.528 15.7407 120.528 14.3526V0.378906H125.475V13.8C125.475 14.1881 125.554 14.4513 125.712 14.5894C125.87 14.7144 126.114 14.7736 126.449 14.7736C126.679 14.7736 126.896 14.7539 127.107 14.721C127.337 14.6881 127.548 14.6355 127.739 14.5631V17.8526C127.285 18.0302 126.837 18.1618 126.396 18.2473C125.975 18.3329 125.429 18.3789 124.765 18.3789ZM104.647 18.1157V5.64206H109.279L109.41 6.58943C109.884 6.27364 110.509 5.99075 111.279 5.74733C112.068 5.50391 112.91 5.37891 113.805 5.37891C115.364 5.37891 116.509 5.76706 117.226 6.5368C117.943 7.30654 118.305 8.50391 118.305 10.1157V18.1157H113.357V10.6157C113.357 10.0565 113.233 9.64864 112.989 9.40522C112.746 9.1618 112.311 9.0368 111.7 9.0368C111.331 9.0368 110.943 9.12233 110.542 9.29996C110.154 9.47759 109.838 9.68812 109.594 9.93154V18.1157H104.647ZM95.4503 14.7736C96.2595 14.7736 96.8384 14.5434 97.1871 14.0894C97.5555 13.6355 97.7397 12.8986 97.7397 11.8789C97.7397 10.8592 97.5555 10.1486 97.1871 9.6947C96.8384 9.22101 96.2595 8.98417 95.4503 8.98417C94.6411 8.98417 94.0885 9.22101 93.7399 9.6947C93.3912 10.1486 93.2136 10.8789 93.2136 11.8789C93.2136 12.8789 93.3912 13.6355 93.7399 14.0894C94.0885 14.5434 94.6609 14.7736 95.4503 14.7736ZM95.4503 18.3789C92.957 18.3789 91.115 17.8263 89.9242 16.721C88.7466 15.6157 88.1611 14.0039 88.1611 11.8789C88.1611 9.75391 88.7598 8.16838 89.9505 7.06312C91.1413 5.93812 92.9767 5.37891 95.4503 5.37891C97.9239 5.37891 99.7857 5.93812 100.976 7.06312C102.187 8.16838 102.792 9.77364 102.792 11.8789C102.792 13.9842 102.193 15.6157 101.003 16.721C99.812 17.8263 97.9568 18.3789 95.4503 18.3789Z" fill="#045540"/>
</g>
<defs>
<clipPath id="clip0_327_970">
<rect width="165" height="18" fill="white" transform="translate(0 0.378906)"/>
</clipPath>
</defs>
</svg>
