<svg width="20" height="21" viewBox="0 0 20 21" fill="none" xmlns="http://www.w3.org/2000/svg">
<path d="M18.6167 8.27496L16.9501 7.44163C16.6417 7.29163 16.2584 7.40829 16.1084 7.71663C15.9501 8.03329 16.0751 8.40829 16.3834 8.55829L17.7084 9.21663V13.2083L14.5834 13.2166V4.66663C14.5834 2.99996 13.4667 2.16663 12.0834 2.16663H5.41675C4.03341 2.16663 2.91675 2.99996 2.91675 4.66663V18.2083H1.66675C1.32508 18.2083 1.04175 18.4916 1.04175 18.8333C1.04175 19.175 1.32508 19.4583 1.66675 19.4583H15.8334C16.1751 19.4583 16.4584 19.175 16.4584 18.8333C16.4584 18.4916 16.1751 18.2083 15.8334 18.2083H14.5834V14.4666L18.3334 14.4583C18.6834 14.4583 18.9584 14.175 18.9584 13.8333V8.83329C18.9584 8.59996 18.8251 8.38329 18.6167 8.27496ZM5.00008 6.24163C5.00008 5.08329 5.70842 4.66663 6.57508 4.66663H10.9334C11.7917 4.66663 12.5001 5.08329 12.5001 6.24163V7.26663C12.5001 8.41663 11.7917 8.83329 10.9251 8.83329H6.57508C5.70842 8.83329 5.00008 8.41663 5.00008 7.25829V6.24163ZM5.41675 10.7083H7.91675C8.25842 10.7083 8.54175 10.9916 8.54175 11.3333C8.54175 11.675 8.25842 11.9583 7.91675 11.9583H5.41675C5.07508 11.9583 4.79175 11.675 4.79175 11.3333C4.79175 10.9916 5.07508 10.7083 5.41675 10.7083Z" fill="black"/>
</svg>
